<svg viewBox="0 0 250 283" fill="none" xmlns="http://www.w3.org/2000/svg">
<path d="M244.445 235.049C235.368 232.701 227.369 227.313 221.781 219.784C216.194 212.255 213.354 203.039 213.736 193.67C213.792 192.193 213.3 190.748 212.356 189.61C211.412 188.473 210.081 187.725 208.619 187.508C207.157 187.292 205.666 187.622 204.433 188.437C203.199 189.252 202.31 190.494 201.936 191.923C199.588 201.001 194.2 209 186.671 214.588C179.142 220.176 169.925 223.015 160.557 222.632C159.08 222.577 157.634 223.068 156.497 224.012C155.359 224.956 154.611 226.287 154.394 227.749C154.178 229.212 154.509 230.702 155.324 231.936C156.138 233.169 157.38 234.058 158.81 234.432C167.887 236.781 175.886 242.169 181.473 249.698C187.061 257.227 189.901 266.444 189.519 275.812C189.463 277.289 189.955 278.735 190.899 279.872C191.843 281.009 193.174 281.757 194.636 281.974C196.098 282.19 197.589 281.859 198.822 281.044C200.055 280.23 200.944 278.988 201.319 277.558C203.664 268.48 209.051 260.479 216.581 254.891C224.111 249.303 233.33 246.464 242.699 246.849C244.176 246.905 245.621 246.414 246.758 245.469C247.895 244.525 248.644 243.194 248.86 241.732C249.076 240.27 248.745 238.779 247.931 237.546C247.116 236.313 245.875 235.424 244.445 235.049Z" />
<path d="M240.072 17.9444C234.581 21.7624 227.948 23.5839 221.278 23.1053C214.607 22.6267 208.302 19.8771 203.413 15.3144C202.329 14.3115 200.913 13.7437 199.436 13.7196C197.96 13.6954 196.526 14.2167 195.41 15.1836C194.294 16.1505 193.573 17.4952 193.386 18.9601C193.2 20.425 193.56 21.9074 194.398 23.1234C198.215 28.614 200.036 35.2468 199.558 41.917C199.079 48.5871 196.33 54.892 191.768 59.7814C190.766 60.8655 190.198 62.281 190.175 63.7571C190.151 65.2332 190.672 66.6662 191.638 67.7822C192.605 68.8981 193.949 69.6185 195.413 69.8056C196.878 69.9928 198.36 69.6334 199.576 68.7964C205.067 64.9793 211.7 63.1584 218.37 63.6369C225.04 64.1155 231.345 66.8646 236.235 71.4264C237.319 72.4285 238.734 72.9957 240.21 73.0195C241.686 73.0434 243.12 72.5222 244.235 71.5557C245.351 70.5892 246.072 69.2452 246.259 67.7808C246.446 66.3164 246.087 64.8345 245.25 63.6184C241.432 58.1276 239.611 51.4947 240.09 44.8244C240.568 38.1541 243.318 31.849 247.88 26.9594C248.882 25.8753 249.449 24.4598 249.473 22.9837C249.497 21.5076 248.976 20.0746 248.009 18.9586C247.043 17.8427 245.698 17.1223 244.234 16.9352C242.77 16.7481 241.288 17.1074 240.072 17.9444Z" />
<path d="M3.04304 40.218C14.2455 46.5018 22.9569 56.4339 27.7263 68.3601C32.4958 80.2862 33.0353 93.4865 29.255 105.762C28.826 107.175 28.9332 108.697 29.5563 110.036C30.1794 111.375 31.2745 112.438 32.6319 113.02C33.9893 113.602 35.5138 113.662 36.9133 113.191C38.3128 112.719 39.4892 111.747 40.217 110.462C46.5004 99.2592 56.4325 90.5474 68.3588 85.7779C80.2851 81.0084 93.4855 80.4692 105.761 84.25C107.174 84.6791 108.696 84.5718 110.035 83.9487C111.374 83.3257 112.437 82.2306 113.019 80.8732C113.601 79.5157 113.661 77.9913 113.19 76.5918C112.718 75.1922 111.746 74.0159 110.461 73.288C99.2583 67.0042 90.5467 57.072 85.777 45.1457C81.0074 33.2193 80.4678 20.0189 84.248 7.74303C84.6771 6.32978 84.5698 4.80792 83.9467 3.46883C83.3237 2.12974 82.2286 1.0675 80.8711 0.485495C79.5137 -0.0965136 77.9893 -0.157399 76.5898 0.314493C75.1902 0.786385 74.0139 1.7579 73.286 3.04303C67.0026 14.2455 57.0706 22.957 45.1446 27.7265C33.2186 32.496 20.0185 33.0354 7.74303 29.255C6.32978 28.826 4.80793 28.9332 3.46883 29.5563C2.12974 30.1794 1.06751 31.2745 0.485497 32.6319C-0.0965114 33.9893 -0.1574 35.5138 0.314492 36.9133C0.786384 38.3128 1.7579 39.4901 3.04304 40.218Z" />
</svg>